<svg xmlns="http://www.w3.org/2000/svg" width="217" height="90" fill="none"><path fill="#fff" d="m10.371 85.766-2.13-3.37c-.244.02-.443.03-.597.03H4.918v3.34H3.447V75.043h4.197c1.359 0 2.405.316 3.14.95.746.623 1.12 1.511 1.12 2.665 0 .868-.205 1.598-.614 2.19-.398.593-.975 1.022-1.73 1.287l2.496 3.631h-1.685zm-2.727-4.672c.92 0 1.624-.2 2.114-.598.49-.408.736-1.006.736-1.792 0-.766-.245-1.343-.736-1.731-.49-.398-1.194-.597-2.114-.597H4.918v4.718h2.726zm16.348-6.143c1.032 0 1.976.24 2.834.72a5.376 5.376 0 0 1 2.053 1.976c.5.827.75 1.741.75 2.742 0 1-.25 1.925-.75 2.773a5.49 5.49 0 0 1-2.053 1.991c-.858.48-1.802.72-2.834.72a5.79 5.79 0 0 1-2.849-.72 5.524 5.524 0 0 1-2.038-1.991 5.357 5.357 0 0 1-.75-2.773c0-1 .25-1.915.75-2.742a5.407 5.407 0 0 1 2.038-1.976c.858-.48 1.808-.72 2.85-.72zm.016 1.317a4.13 4.13 0 0 0-2.084.552 4.19 4.19 0 0 0-1.516 1.501 3.912 3.912 0 0 0-.567 2.068c0 .756.189 1.45.567 2.084a4.315 4.315 0 0 0 1.516 1.516 4.129 4.129 0 0 0 2.084.552c.745 0 1.43-.184 2.052-.552a4.19 4.19 0 0 0 1.502-1.517 3.99 3.99 0 0 0 .566-2.083 3.91 3.91 0 0 0-.566-2.068 4.072 4.072 0 0 0-1.502-1.501 3.966 3.966 0 0 0-2.052-.552zm16.86-1.317c1.03 0 1.975.24 2.833.72a5.376 5.376 0 0 1 2.053 1.976c.5.827.75 1.741.75 2.742 0 1-.25 1.925-.75 2.773a5.49 5.49 0 0 1-2.053 1.991c-.858.48-1.802.72-2.834.72a5.79 5.79 0 0 1-2.849-.72 5.524 5.524 0 0 1-2.038-1.991 5.357 5.357 0 0 1-.75-2.773c0-1 .25-1.915.75-2.742a5.407 5.407 0 0 1 2.038-1.976c.858-.48 1.808-.72 2.85-.72zm.015 1.317a4.13 4.13 0 0 0-2.084.552 4.19 4.19 0 0 0-1.516 1.501 3.912 3.912 0 0 0-.567 2.068c0 .756.189 1.45.567 2.084a4.315 4.315 0 0 0 1.516 1.516 4.129 4.129 0 0 0 2.084.552c.745 0 1.43-.184 2.052-.552a4.19 4.19 0 0 0 1.502-1.517 3.99 3.99 0 0 0 .567-2.083 3.91 3.91 0 0 0-.567-2.068 4.072 4.072 0 0 0-1.502-1.501 3.966 3.966 0 0 0-2.052-.552zm12.516-1.225h6.985l-.015 1.332h-5.5V79.9h4.949v1.333h-4.949v4.534H53.4V75.043zm13.494 0h1.47v10.723h-1.47V75.043zm16.949 0h1.455v10.723h-1.486l-6.127-8.303v8.303h-1.471V75.043h1.486l6.143 8.318v-8.318zm16.735 5.484h1.302v3.937a6.507 6.507 0 0 1-1.9 1.026 6.471 6.471 0 0 1-2.16.383 5.705 5.705 0 0 1-2.833-.72 5.525 5.525 0 0 1-2.038-1.991 5.442 5.442 0 0 1-.735-2.773c0-1 .25-1.915.75-2.742a5.376 5.376 0 0 1 2.053-1.976c.868-.48 1.828-.72 2.88-.72.746 0 1.471.133 2.176.398a5.84 5.84 0 0 1 1.853 1.088l-.842 1.072a4.549 4.549 0 0 0-1.486-.92 4.47 4.47 0 0 0-1.7-.336c-.767 0-1.471.184-2.115.551a4.154 4.154 0 0 0-1.532 1.502 4.075 4.075 0 0 0-.551 2.083c0 .756.189 1.455.567 2.099a4.276 4.276 0 0 0 1.532 1.516 4.186 4.186 0 0 0 2.114.552c.449 0 .903-.072 1.363-.215a5.26 5.26 0 0 0 1.302-.628v-3.186zm23.939-3.248a5.934 5.934 0 0 0-1.562-.704 5.027 5.027 0 0 0-1.471-.246c-.623 0-1.123.123-1.501.368-.368.235-.552.562-.552.98 0 .378.113.69.337.935.225.235.501.424.828.567.326.133.781.29 1.363.475.725.225 1.312.439 1.762.643.449.204.832.51 1.149.92.316.398.475.929.475 1.593 0 .612-.169 1.148-.506 1.608-.327.46-.791.817-1.394 1.072-.592.246-1.277.368-2.053.368a5.997 5.997 0 0 1-2.298-.46 6.233 6.233 0 0 1-1.93-1.225l.659-1.272c.511.5 1.082.889 1.716 1.165.643.265 1.266.398 1.869.398.714 0 1.276-.138 1.685-.414.418-.286.628-.669.628-1.149 0-.377-.113-.689-.337-.934a2.369 2.369 0 0 0-.858-.582 13.792 13.792 0 0 0-1.379-.475 14.134 14.134 0 0 1-1.746-.628 3.071 3.071 0 0 1-1.149-.904c-.307-.398-.46-.924-.46-1.578 0-.572.159-1.077.475-1.516.317-.44.761-.777 1.333-1.012.572-.234 1.236-.352 1.991-.352a6.21 6.21 0 0 1 1.885.291 6.137 6.137 0 0 1 1.654.75l-.613 1.318zm7.962-2.236h7.445v1.332h-5.974v3.31h5.346v1.332h-5.346v3.416h6.158v1.333h-7.629V75.043zm21.72 10.723-2.13-3.37c-.245.02-.444.03-.597.03h-2.727v3.34h-1.471V75.043h4.198c1.358 0 2.405.316 3.14.95.746.623 1.119 1.511 1.119 2.665 0 .868-.205 1.598-.613 2.19-.398.593-.975 1.022-1.731 1.287l2.497 3.631h-1.685zm-2.727-4.672c.919 0 1.624-.2 2.114-.598.49-.408.735-1.006.735-1.792 0-.766-.245-1.343-.735-1.731-.49-.398-1.195-.597-2.114-.597h-2.727v4.718h2.727zm10.085-6.051h1.578l3.539 9.084 3.538-9.084h1.548l-4.351 10.723h-1.532l-4.32-10.723zm16.595 0h1.471v10.723h-1.471V75.043zm17.087 2.573a4.317 4.317 0 0 0-1.425-.995 4.006 4.006 0 0 0-1.669-.368c-.756 0-1.451.184-2.084.551a4.075 4.075 0 0 0-1.501 1.502 3.99 3.99 0 0 0-.552 2.068c0 .745.184 1.435.552 2.068a4.075 4.075 0 0 0 1.501 1.501 4.076 4.076 0 0 0 2.084.552c.561 0 1.113-.113 1.654-.337a4.91 4.91 0 0 0 1.44-.95l.889.965c-.542.531-1.17.95-1.885 1.256a5.637 5.637 0 0 1-2.175.444 5.588 5.588 0 0 1-2.803-.72 5.437 5.437 0 0 1-2.743-4.764c0-1 .246-1.915.736-2.742a5.402 5.402 0 0 1 2.037-1.976 5.707 5.707 0 0 1 2.834-.72c.746 0 1.466.143 2.16.429a5.242 5.242 0 0 1 1.823 1.18l-.873 1.056zm7.732-2.573h7.445v1.332h-5.974v3.31h5.346v1.332h-5.346v3.416h6.158v1.333h-7.629V75.043zM16.958 32.91c1.287-2.16 2.942-3.815 4.964-4.964 2.068-1.149 4.412-1.723 7.031-1.723V37.46c-.413-.046-1.034-.07-1.861-.07-2.895 0-5.24.69-7.032 2.069-1.792 1.332-2.826 3.17-3.102 5.515V64H4.688V26.706h12.27v6.204zm34.654-6.618c4.044 0 7.606.804 10.685 2.413 3.079 1.562 5.469 3.791 7.17 6.687 1.7 2.849 2.55 6.158 2.55 9.926 0 3.815-.85 7.17-2.55 10.065-1.701 2.85-4.091 5.078-7.17 6.687-3.08 1.562-6.641 2.344-10.685 2.344-4.045 0-7.606-.782-10.686-2.344-3.079-1.609-5.468-3.838-7.169-6.687-1.654-2.895-2.481-6.25-2.481-10.065 0-3.768.827-7.077 2.481-9.926 1.7-2.896 4.09-5.125 7.17-6.687 3.079-1.609 6.64-2.413 10.685-2.413zm0 9.927c-2.39 0-4.32.85-5.791 2.55-1.47 1.7-2.206 3.93-2.206 6.687 0 2.804.735 5.055 2.206 6.756 1.47 1.7 3.4 2.55 5.79 2.55 2.436 0 4.39-.85 5.86-2.55 1.47-1.7 2.206-3.952 2.206-6.756 0-2.757-.758-4.986-2.275-6.687-1.47-1.7-3.4-2.55-5.79-2.55zm43.96-9.927c4.044 0 7.606.804 10.685 2.413 3.079 1.562 5.469 3.791 7.169 6.687 1.701 2.849 2.551 6.158 2.551 9.926 0 3.815-.85 7.17-2.551 10.065-1.7 2.85-4.09 5.078-7.169 6.687-3.079 1.562-6.64 2.344-10.685 2.344-4.044 0-7.606-.782-10.685-2.344-3.08-1.609-5.47-3.838-7.17-6.687-1.654-2.895-2.481-6.25-2.481-10.065 0-3.768.827-7.077 2.481-9.926 1.7-2.896 4.09-5.125 7.17-6.687 3.079-1.609 6.64-2.413 10.685-2.413zm0 9.927c-2.39 0-4.32.85-5.79 2.55-1.471 1.7-2.207 3.93-2.207 6.687 0 2.804.736 5.055 2.206 6.756 1.47 1.7 3.401 2.55 5.79 2.55 2.437 0 4.39-.85 5.86-2.55 1.471-1.7 2.206-3.952 2.206-6.756 0-2.757-.758-4.986-2.274-6.687-1.471-1.7-3.401-2.55-5.791-2.55zm44.731-14.132c-1.24 0-2.251.345-3.033 1.034-.781.69-1.172 1.677-1.172 2.964v2.413h8.273v8.134h-8.273V64h-12.201V36.632h-5.033v-8.134h5.033V25.05c0-3.952 1.309-7.054 3.929-9.306 2.666-2.298 6.066-3.447 10.203-3.447 2.711 0 5.377.482 7.996 1.447l-1.585 9.307c-1.839-.643-3.217-.965-4.137-.965zm24.453 4.205c6.067 0 10.731 1.792 13.994 5.377s4.895 8.502 4.895 14.752c0 .965-.023 1.7-.069 2.206h-25.92c.597 2.114 1.631 3.746 3.102 4.895 1.471 1.103 3.263 1.654 5.377 1.654a11.41 11.41 0 0 0 4.619-.965c1.516-.643 2.895-1.585 4.136-2.826l6.411 6.41c-1.93 2.16-4.274 3.815-7.031 4.964-2.712 1.103-5.791 1.655-9.238 1.655-3.998 0-7.491-.782-10.478-2.344-2.987-1.563-5.285-3.769-6.894-6.618-1.562-2.85-2.344-6.158-2.344-9.927 0-3.814.805-7.17 2.413-10.065 1.609-2.94 3.884-5.193 6.825-6.755 2.941-1.609 6.342-2.413 10.202-2.413zm6.963 15.786c0-2.16-.643-3.883-1.93-5.17-1.241-1.333-2.896-2-4.964-2-1.93 0-3.561.644-4.894 1.931-1.287 1.287-2.137 3.033-2.551 5.24h14.339zm30.438-9.168c1.287-2.16 2.941-3.815 4.963-4.964 2.068-1.149 4.412-1.723 7.032-1.723V37.46c-.414-.046-1.034-.07-1.861-.07-2.896 0-5.24.69-7.032 2.069-1.792 1.332-2.826 3.17-3.102 5.515V64h-12.271V26.706h12.271v6.204zM93.21 6.189a1.516 1.516 0 0 0-1.072-.444H52.934c-.402 0-.788.16-1.072.444l-13.102 13.1a1.516 1.516 0 1 0 2.143 2.143l12.658-12.66H91.51l12.695 12.696a1.512 1.512 0 0 0 2.125-.018 1.519 1.519 0 0 0 .018-2.125L93.209 6.189z"/></svg>