<svg xmlns="http://www.w3.org/2000/svg" width="139" height="50" fill="none"><path fill="#434338" d="M2.134 47.425v-5.6H4.23c.474 0 .882.078 1.224.232.341.15.602.368.784.657.186.282.28.626.28 1.032 0 .394-.094.735-.28 1.023a1.77 1.77 0 0 1-.784.657c-.342.149-.75.224-1.224.224H2.462l.264-.273v2.048h-.592zm3.824 0-1.44-2.031h.64l1.448 2.032h-.648zm-3.232-2-.264-.28h1.752c.56 0 .984-.122 1.272-.367.293-.246.44-.59.44-1.032 0-.449-.147-.795-.44-1.04-.288-.246-.712-.369-1.272-.369H2.462l.264-.28v3.368zm10.137 2.049c-.421 0-.813-.07-1.176-.208a2.904 2.904 0 0 1-.936-.6 2.925 2.925 0 0 1-.616-.904 2.933 2.933 0 0 1-.216-1.136c0-.411.072-.787.216-1.128.15-.347.355-.648.616-.904.267-.262.579-.462.936-.6a3.1 3.1 0 0 1 1.176-.216c.421 0 .81.072 1.168.215a2.733 2.733 0 0 1 1.544 1.497c.15.346.224.725.224 1.136 0 .41-.075.789-.224 1.136-.144.346-.35.648-.616.904a2.81 2.81 0 0 1-.928.6 3.2 3.2 0 0 1-1.168.208zm0-.528c.336 0 .645-.056.928-.168.288-.118.536-.28.744-.489.213-.213.379-.458.496-.736.117-.282.176-.591.176-.927a2.34 2.34 0 0 0-.176-.92 2.186 2.186 0 0 0-.496-.737 2.076 2.076 0 0 0-.744-.488 2.397 2.397 0 0 0-.928-.175c-.336 0-.648.058-.936.175a2.157 2.157 0 0 0-.752.488 2.356 2.356 0 0 0-.496.736 2.339 2.339 0 0 0-.176.92c0 .331.059.638.176.92.123.283.288.531.496.744.213.209.464.371.752.489.288.111.6.168.936.168zm9.21.528c-.42 0-.813-.07-1.175-.208a2.902 2.902 0 0 1-.936-.6 2.922 2.922 0 0 1-.616-.904 2.932 2.932 0 0 1-.216-1.136c0-.411.072-.787.216-1.128.15-.347.355-.648.616-.904.267-.262.579-.462.936-.6a3.1 3.1 0 0 1 1.176-.216c.421 0 .81.072 1.168.215a2.743 2.743 0 0 1 1.544 1.497c.15.346.224.725.224 1.136 0 .41-.075.789-.224 1.136-.144.346-.35.648-.616.904-.262.256-.57.456-.928.6a3.201 3.201 0 0 1-1.168.208zm0-.528a2.5 2.5 0 0 0 .929-.168c.288-.118.536-.28.744-.489.213-.213.379-.458.496-.736.117-.282.176-.591.176-.927a2.34 2.34 0 0 0-.176-.92 2.189 2.189 0 0 0-.496-.737 2.076 2.076 0 0 0-.744-.488 2.398 2.398 0 0 0-.928-.175c-.336 0-.648.058-.936.175a2.156 2.156 0 0 0-.752.488 2.355 2.355 0 0 0-.496.736 2.337 2.337 0 0 0-.176.92c0 .331.059.638.176.92.122.283.288.531.496.744.213.209.464.371.752.489.288.111.6.168.936.168zm7.292-2.408h2.96v.512h-2.96v-.512zm.064 2.888h-.592v-5.6h3.84v.511h-3.248v5.088zm6.97 0v-5.6h.592v5.6H36.4zm4.914 0v-5.6h.488l3.864 4.864h-.256v-4.864h.584v5.6h-.488l-3.856-4.864h.256v4.864h-.592zm11.464.047c-.427 0-.821-.069-1.184-.207a2.902 2.902 0 0 1-.936-.6 2.802 2.802 0 0 1-.616-.904 2.932 2.932 0 0 1-.216-1.136c0-.411.072-.79.216-1.136a2.744 2.744 0 0 1 1.56-1.497 3.18 3.18 0 0 1 1.184-.215c.427 0 .816.066 1.168.2.357.133.661.335.912.608l-.368.376a2.096 2.096 0 0 0-.776-.505 2.684 2.684 0 0 0-.912-.151c-.346 0-.666.058-.96.175a2.238 2.238 0 0 0-.76.488 2.287 2.287 0 0 0-.504.736 2.337 2.337 0 0 0-.176.92c0 .331.059.638.176.92.123.283.29.531.504.744.219.209.472.371.76.489.294.111.61.168.952.168.32 0 .621-.048.904-.145.288-.096.552-.258.792-.488l.336.448a2.751 2.751 0 0 1-.936.536c-.357.118-.73.177-1.12.177zm1.488-.783v-2.064h.568v2.136l-.568-.072zm10.881.784a3.63 3.63 0 0 1-1.2-.2c-.378-.14-.672-.315-.88-.529l.232-.456c.198.192.462.355.792.489a2.94 2.94 0 0 0 1.056.191c.352 0 .638-.042.856-.127.224-.091.387-.211.488-.36a.834.834 0 0 0 .16-.496.73.73 0 0 0-.192-.528 1.224 1.224 0 0 0-.488-.313 4.997 4.997 0 0 0-.672-.208c-.245-.058-.49-.12-.736-.183a3.35 3.35 0 0 1-.68-.273 1.464 1.464 0 0 1-.496-.44c-.122-.186-.184-.429-.184-.727 0-.278.072-.531.216-.76.15-.235.376-.422.68-.56.304-.145.694-.216 1.168-.216.315 0 .627.045.936.136.31.085.576.205.8.36l-.2.471a2.875 2.875 0 0 0-1.544-.464c-.336 0-.613.046-.832.136a1.07 1.07 0 0 0-.488.368.89.89 0 0 0-.152.513.75.75 0 0 0 .184.527c.128.134.294.238.496.313.208.074.435.14.68.2.246.058.488.122.728.191.246.07.47.16.672.272.208.107.374.251.496.432.128.182.192.42.192.713 0 .272-.074.525-.224.76-.149.229-.378.415-.688.56-.304.138-.696.208-1.176.208zm6.406-3.144h2.96v.504h-2.96v-.505zm.064 2.584h3.368v.511h-3.96v-5.6h3.84v.512h-3.248v4.576zm7.26.511v-5.6h2.096c.475 0 .883.078 1.224.232.341.15.603.368.784.657.186.282.28.626.28 1.032 0 .394-.094.735-.28 1.023a1.77 1.77 0 0 1-.784.657c-.341.149-.75.224-1.224.224h-1.768l.264-.273v2.048h-.592zm3.824 0-1.44-2.031h.64l1.448 2.032H82.7zm-3.232-2-.264-.28h1.752c.56 0 .984-.122 1.272-.367.293-.246.44-.59.44-1.032 0-.449-.147-.795-.44-1.04-.288-.246-.712-.369-1.272-.369h-1.752l.264-.28v3.368zm9.281 2-2.48-5.6h.64l2.32 5.272h-.352l2.336-5.272h.6l-2.48 5.6h-.584zm6.377 0v-5.6h.592v5.6h-.592zm7.346.049a3.2 3.2 0 0 1-1.168-.208 2.812 2.812 0 0 1-.928-.6 2.81 2.81 0 0 1-.616-.904 2.932 2.932 0 0 1-.216-1.136c0-.411.072-.79.216-1.136.15-.347.355-.648.616-.904.267-.256.579-.454.936-.593a3.096 3.096 0 0 1 1.168-.215c.405 0 .787.069 1.144.208.357.133.659.336.904.608l-.376.375a2.04 2.04 0 0 0-.76-.504 2.475 2.475 0 0 0-.896-.16c-.336 0-.648.06-.936.176a2.153 2.153 0 0 0-.752.488 2.3 2.3 0 0 0-.504.736 2.344 2.344 0 0 0-.176.92c0 .337.059.646.176.928.123.278.291.523.504.736.213.209.464.371.752.489.288.111.6.168.936.168.32 0 .619-.054.896-.16.277-.107.531-.278.76-.513l.376.377a2.334 2.334 0 0 1-.904.616 3.153 3.153 0 0 1-1.152.208zm6.346-3.144h2.96v.504h-2.96v-.505zm.064 2.584h3.368v.511h-3.96v-5.6h3.84v.512h-3.248v4.576z"/><path fill="#34342B" d="M2.592 34V14.632h5.364v5.472L7.2 18.52c.576-1.368 1.5-2.4 2.772-3.096 1.272-.72 2.82-1.08 4.644-1.08v5.184a6.574 6.574 0 0 0-.648-.036 4.94 4.94 0 0 0-.612-.036c-1.536 0-2.784.444-3.744 1.332-.936.864-1.404 2.22-1.404 4.068V34H2.592zm24.439.288c-2.064 0-3.9-.432-5.508-1.296-1.584-.864-2.844-2.04-3.78-3.528-.912-1.512-1.368-3.228-1.368-5.148 0-1.944.456-3.66 1.368-5.148a9.722 9.722 0 0 1 3.78-3.528c1.608-.864 3.444-1.296 5.508-1.296 2.04 0 3.864.432 5.472 1.296 1.608.84 2.868 2.004 3.78 3.492.912 1.488 1.368 3.216 1.368 5.184 0 1.92-.456 3.636-1.368 5.148-.912 1.488-2.172 2.664-3.78 3.528-1.608.864-3.432 1.296-5.472 1.296zm0-4.608c.936 0 1.776-.216 2.52-.648a4.643 4.643 0 0 0 1.764-1.836c.432-.816.648-1.776.648-2.88 0-1.128-.216-2.088-.648-2.88A4.643 4.643 0 0 0 29.55 19.6c-.744-.432-1.584-.648-2.52-.648-.936 0-1.776.216-2.52.648-.744.432-1.344 1.044-1.8 1.836-.432.792-.648 1.752-.648 2.88 0 1.104.216 2.064.648 2.88.456.792 1.056 1.404 1.8 1.836.744.432 1.584.648 2.52.648zm23.59 4.608c-2.065 0-3.9-.432-5.509-1.296-1.584-.864-2.843-2.04-3.78-3.528-.912-1.512-1.367-3.228-1.367-5.148 0-1.944.455-3.66 1.367-5.148a9.722 9.722 0 0 1 3.78-3.528c1.608-.864 3.444-1.296 5.508-1.296 2.04 0 3.864.432 5.473 1.296 1.607.84 2.867 2.004 3.78 3.492.912 1.488 1.367 3.216 1.367 5.184 0 1.92-.456 3.636-1.367 5.148-.912 1.488-2.172 2.664-3.78 3.528-1.609.864-3.433 1.296-5.473 1.296zm0-4.608c.935 0 1.776-.216 2.52-.648a4.643 4.643 0 0 0 1.764-1.836c.431-.816.648-1.776.648-2.88 0-1.128-.216-2.088-.648-2.88A4.643 4.643 0 0 0 53.14 19.6c-.744-.432-1.584-.648-2.52-.648-.937 0-1.777.216-2.52.648-.745.432-1.344 1.044-1.8 1.836-.433.792-.648 1.752-.648 2.88 0 1.104.215 2.064.648 2.88.456.792 1.055 1.404 1.8 1.836.743.432 1.584.648 2.52.648zM65.677 34V14.2c0-2.184.648-3.924 1.944-5.22C68.918 7.66 70.766 7 73.166 7c.816 0 1.596.084 2.34.252.768.168 1.416.432 1.944.792l-1.476 4.068a3.826 3.826 0 0 0-1.044-.504 4.08 4.08 0 0 0-1.224-.18c-.816 0-1.452.24-1.908.72-.432.456-.648 1.152-.648 2.088v1.8l.144 2.412V34h-5.616zM62.69 19.384v-4.32h13.428v4.32H62.69zm25.592 14.904c-2.208 0-4.152-.432-5.832-1.296-1.656-.864-2.94-2.04-3.852-3.528-.912-1.512-1.368-3.228-1.368-5.148 0-1.944.444-3.66 1.332-5.148a9.529 9.529 0 0 1 3.708-3.528c1.56-.864 3.324-1.296 5.292-1.296 1.896 0 3.6.408 5.112 1.224a8.844 8.844 0 0 1 3.636 3.456c.888 1.488 1.332 3.276 1.332 5.364 0 .216-.012.468-.036.756-.024.264-.048.516-.072.756H81.802v-3.276h12.78l-2.16.972c0-1.008-.204-1.884-.612-2.628a4.342 4.342 0 0 0-1.692-1.728c-.72-.432-1.56-.648-2.52-.648s-1.812.216-2.556.648a4.286 4.286 0 0 0-1.692 1.764c-.408.744-.612 1.632-.612 2.664v.864c0 1.056.228 1.992.684 2.808a4.872 4.872 0 0 0 1.98 1.836c.864.408 1.872.612 3.024.612 1.032 0 1.932-.156 2.7-.468a6.568 6.568 0 0 0 2.16-1.404l2.988 3.24c-.888 1.008-2.004 1.788-3.348 2.34-1.344.528-2.892.792-4.644.792zM101.381 34V14.632h5.364v5.472l-.756-1.584c.576-1.368 1.5-2.4 2.772-3.096 1.272-.72 2.82-1.08 4.644-1.08v5.184a6.574 6.574 0 0 0-.648-.036 4.94 4.94 0 0 0-.612-.036c-1.536 0-2.784.444-3.744 1.332-.936.864-1.404 2.22-1.404 4.068V34h-5.616z"/><path fill="#E1A356" d="M48.676 3.232a.792.792 0 0 0-.56-.232H27.644a.791.791 0 0 0-.56.232l-6.842 6.84a.791.791 0 1 0 1.12 1.12l6.61-6.611h19.816l6.63 6.63a.792.792 0 0 0 1.12-1.12l-6.862-6.859z"/></svg>
