<svg xmlns="http://www.w3.org/2000/svg" width="38" height="34" fill="none"><path fill="#E1A356" stroke="#E1A356" stroke-width=".5" d="M11.8 1H13v2.133h-1.2V1zM6.18 2.624l1.04-.533 1.2 1.847-1.04.533-1.2-1.847zM2.228 6.529l.6-.924L4.906 6.67l-.6.924L2.227 6.53zM1 10.6h2.4v1.067H1V10.6zm1.227 5.138 2.079-1.066.6.923-2.079 1.067-.6-.924zm3.954 3.904 1.2-1.847 1.039.533-1.2 1.848-1.04-.534zM19.895 6.671l2.078-1.067.6.925-2.078 1.066-.6-.924zM16.38 3.939l1.2-1.848 1.04.533-1.2 1.847-1.04-.532z"/><path fill="#E1A356" stroke="#E1A356" stroke-width=".5" d="M34.59 10.505a.525.525 0 0 0-.206-.315.647.647 0 0 0-.384-.123h-1.8V7.933h.6a.64.64 0 0 0 .424-.156.505.505 0 0 0 .176-.377V5.267a.505.505 0 0 0-.176-.378.64.64 0 0 0-.424-.156H28a.64.64 0 0 0-.425.156.505.505 0 0 0-.176.378V7.4c0 .141.063.277.176.377a.64.64 0 0 0 .424.156h.6v2.134h-9.107c-.3-1.583-1.257-3.008-2.683-3.992-1.426-.985-3.217-1.456-5.016-1.322-1.8.134-3.476.865-4.698 2.047-1.221 1.181-1.898 2.728-1.897 4.333.009 1.57.662 3.081 1.837 4.252 1.175 1.171 2.791 1.92 4.544 2.106l-.97 4.747a.476.476 0 0 0 .01.231.515.515 0 0 0 .119.206c.056.06.127.108.206.141a.65.65 0 0 0 .254.05h1.2v9.067h-1.2V33H36.4v-1.067h-1.2v-9.066h1.2a.664.664 0 0 0 .254-.05.598.598 0 0 0 .206-.142.515.515 0 0 0 .12-.206.476.476 0 0 0 .01-.231l-2.4-11.733zM28.6 5.8h3.6v1.067h-3.6V5.8zm1.2 2.133H31v2.134h-1.2V7.933zm-23.402 3.2c.005-1.319.559-2.59 1.555-3.567.997-.977 2.366-1.591 3.842-1.724 1.477-.132 2.956.226 4.153 1.006 1.196.78 2.025 1.927 2.326 3.219H13.6a.647.647 0 0 0-.385.123.525.525 0 0 0-.206.315l-1.213 5.931c-1.476-.138-2.843-.756-3.839-1.734-.996-.979-1.55-2.25-1.558-3.569zM22 31.933V28.2h3.6v3.733H22zm12 0h-7.2v-4.266a.505.505 0 0 0-.175-.378.64.64 0 0 0-.425-.156h-4.8a.64.64 0 0 0-.424.157.505.505 0 0 0-.176.377v4.266h-7.2v-9.066H34v9.066zM11.92 21.8l2.18-10.667h19.4L35.68 21.8H11.919z"/><path stroke="#E1A356" stroke-width=".8" d="M31.003 11.667H16.602a.64.64 0 0 0-.424.156.505.505 0 0 0-.176.377v8.533c0 .142.063.277.176.377a.64.64 0 0 0 .424.157h14.4a.64.64 0 0 0 .425-.157.505.505 0 0 0 .176-.377V12.2a.505.505 0 0 0-.176-.377.64.64 0 0 0-.424-.156zm-.6 2.133h-1.2v-1.067h1.2V13.8zm-7.2 3.2v1.067h-1.2V17h1.2zm-1.2-1.067v-1.066h1.2v1.066h-1.2zm2.4 1.067h1.2v1.067h-1.2V17zm0-1.067v-1.066h1.2v1.066h-1.2zm2.4-1.066h1.2v1.066h-1.2v-1.066zm0-1.067v-1.067h1.2V13.8h-1.2zm-1.2 0h-1.2v-1.067h1.2V13.8zm-2.4 0h-1.2v-1.067h1.2V13.8zm-2.401 0h-1.2v-1.067h1.2V13.8zm0 1.067v1.066h-1.2v-1.066h1.2zm-2.4 1.066h-1.2v-1.066h1.2v1.066zm0 1.067v1.067h-1.2V17h1.2zm1.2 0h1.2v1.067h-1.2V17zm1.2 2.133V20.2h-1.2v-1.067h1.2zm1.2 0h1.2V20.2h-1.2v-1.067zm2.4 0h1.2V20.2h-1.2v-1.067zm2.4 0h1.2V20.2h-1.2v-1.067zm0-1.066V17h1.2v1.067h-1.2zm2.4-1.067h1.2v1.067h-1.2V17zm0-1.067v-1.066h1.2v1.066h-1.2zm-10.8-3.2V13.8h-1.2v-1.067h1.2zm-1.2 6.4h1.2V20.2h-1.2v-1.067zm12 1.067v-1.067h1.2V20.2h-1.2zm-13.8 7.467h3.6a.64.64 0 0 0 .424-.157.505.505 0 0 0 .176-.377v-2.666a.505.505 0 0 0-.176-.377.64.64 0 0 0-.424-.157h-3.6a.64.64 0 0 0-.425.157.505.505 0 0 0-.175.377v2.666c0 .142.063.277.175.377a.64.64 0 0 0 .425.157zm.6-2.667h2.4v1.6h-2.4V25zm12.6 2.667h3.6a.64.64 0 0 0 .425-.157.505.505 0 0 0 .176-.377v-2.666a.505.505 0 0 0-.176-.377.64.64 0 0 0-.424-.157h-3.6a.64.64 0 0 0-.425.157.505.505 0 0 0-.176.377v2.666c0 .142.064.277.176.377a.64.64 0 0 0 .424.157zm.6-2.667h2.4v1.6h-2.4V25z"/></svg>